<svg xmlns="http://www.w3.org/2000/svg" xmlns:xlink="http://www.w3.org/1999/xlink" width="500" zoomAndPan="magnify" viewBox="0 0 375 374.999991" height="500" preserveAspectRatio="xMidYMid meet" version="1.0"><path fill="#f9c5db" d="M 20.425781 101.039062 C 31.113281 118.660156 21.007812 122.035156 62.789062 230.757812 C 103.070312 335.578125 104.296875 311.1875 110.046875 340.171875 C 111.429688 347.152344 113.757812 360.675781 124.230469 366.996094 C 137.609375 375.078125 154.148438 365.277344 182.949219 353.074219 C 222.917969 336.140625 265.265625 325.4375 306.082031 310.644531 C 333.582031 300.675781 347.417969 295.566406 351.4375 289.390625 C 365.402344 267.96875 343.761719 246.714844 315.734375 161.546875 C 302.34375 120.851562 285.3125 81.285156 274.378906 39.867188 C 270.210938 24.078125 268.382812 15.332031 259.960938 8.921875 C 237.511719 -8.15625 207.644531 13.710938 131.988281 39.246094 C 118.097656 43.9375 89.550781 52.207031 33.363281 73.710938 C 15.378906 80.613281 18.925781 98.574219 20.425781 101.039062 Z M 20.425781 101.039062 " fill-opacity="1" fill-rule="nonzero"/><path fill="#735a43" d="M 22.046875 114.078125 C 21.417969 109.292969 32.195312 108.804688 34.0625 112.757812 C 49.964844 158.363281 66.855469 204.949219 84.820312 252.417969 C 97.375 285.589844 110.027344 318.074219 122.738281 349.863281 C 118.515625 351.527344 114.304688 353.191406 110.082031 354.863281 C 82.246094 279.84375 54.410156 204.820312 26.585938 129.800781 C 25.027344 123.988281 22.628906 118.488281 22.046875 114.078125 Z M 22.046875 114.078125 " fill-opacity="1" fill-rule="nonzero"/><path fill="#735a43" d="M 102.414062 270.886719 C 98.429688 268.648438 86.75 273.558594 75.023438 277.761719 C 74.378906 277.988281 72.8125 278.851562 71.839844 280.371094 C 70.867188 281.878906 70.949219 283.398438 71.550781 284.972656 C 72.785156 288.238281 75.433594 288.375 76.34375 288.089844 C 89.453125 284.109375 91.488281 283.097656 102.941406 278.097656 C 105.664062 276.90625 104.972656 272.324219 102.414062 270.886719 Z M 102.414062 270.886719 " fill-opacity="1" fill-rule="nonzero"/><path fill="#735a43" d="M 130.796875 344.789062 C 126.8125 342.550781 115.132812 347.464844 103.40625 351.664062 C 102.761719 351.890625 101.195312 352.753906 100.222656 354.273438 C 99.25 355.785156 99.332031 357.300781 99.929688 358.875 C 101.167969 362.140625 103.816406 362.277344 104.726562 361.996094 C 117.832031 358.011719 119.871094 357.003906 131.324219 352 C 134.054688 350.808594 133.363281 346.226562 130.796875 344.789062 Z M 130.796875 344.789062 " fill-opacity="1" fill-rule="nonzero"/><path fill="#735a43" d="M 123.664062 328.683594 C 119.679688 326.449219 108 331.359375 96.273438 335.558594 C 95.628906 335.785156 94.0625 336.652344 93.089844 338.167969 C 92.117188 339.679688 92.199219 341.199219 92.800781 342.769531 C 94.035156 346.035156 96.683594 346.171875 97.59375 345.890625 C 110.703125 341.90625 112.738281 340.898438 124.191406 335.894531 C 126.921875 334.703125 126.230469 330.128906 123.664062 328.683594 Z M 123.664062 328.683594 " fill-opacity="1" fill-rule="nonzero"/><path fill="#735a43" d="M 116.851562 309.179688 C 112.867188 306.941406 101.1875 311.851562 89.460938 316.054688 C 88.816406 316.28125 87.25 317.144531 86.277344 318.664062 C 85.304688 320.171875 85.386719 321.691406 85.984375 323.265625 C 87.222656 326.53125 89.871094 326.667969 90.78125 326.382812 C 103.886719 322.402344 105.925781 321.390625 117.378906 316.390625 C 120.097656 315.199219 119.40625 310.625 116.851562 309.179688 Z M 116.851562 309.179688 " fill-opacity="1" fill-rule="nonzero"/><path fill="#735a43" d="M 108.929688 288.265625 C 104.945312 286.027344 93.261719 290.9375 81.539062 295.140625 C 80.890625 295.367188 79.328125 296.230469 78.355469 297.75 C 77.378906 299.257812 77.460938 300.777344 78.0625 302.351562 C 79.300781 305.613281 81.945312 305.75 82.855469 305.46875 C 95.964844 301.484375 98.003906 300.476562 109.457031 295.476562 C 112.183594 294.285156 111.492188 289.699219 108.929688 288.265625 Z M 108.929688 288.265625 " fill-opacity="1" fill-rule="nonzero"/><path fill="#735a43" d="M 96.300781 251.300781 C 92.316406 249.0625 80.636719 253.972656 68.910156 258.171875 C 68.265625 258.402344 66.699219 259.265625 65.726562 260.785156 C 64.753906 262.292969 64.835938 263.8125 65.4375 265.386719 C 66.671875 268.648438 69.320312 268.785156 70.230469 268.503906 C 83.339844 264.519531 85.375 263.511719 96.828125 258.511719 C 99.558594 257.320312 98.867188 252.734375 96.300781 251.300781 Z M 96.300781 251.300781 " fill-opacity="1" fill-rule="nonzero"/><path fill="#735a43" d="M 88.585938 231.800781 C 84.601562 229.566406 72.921875 234.476562 61.199219 238.675781 C 60.550781 238.90625 58.988281 239.769531 58.011719 241.285156 C 57.039062 242.796875 57.121094 244.316406 57.722656 245.886719 C 58.960938 249.152344 61.605469 249.289062 62.515625 249.007812 C 75.625 245.023438 77.664062 244.015625 89.117188 239.011719 C 91.84375 237.824219 91.152344 233.25 88.585938 231.800781 Z M 88.585938 231.800781 " fill-opacity="1" fill-rule="nonzero"/><path fill="#735a43" d="M 80.964844 212.578125 C 76.980469 210.339844 65.300781 215.253906 53.574219 219.453125 C 52.929688 219.679688 51.363281 220.542969 50.390625 222.0625 C 49.417969 223.574219 49.5 225.089844 50.097656 226.664062 C 51.335938 229.929688 53.984375 230.066406 54.894531 229.785156 C 68 225.800781 70.039062 224.792969 81.492188 219.789062 C 84.222656 218.597656 83.53125 214.015625 80.964844 212.578125 Z M 80.964844 212.578125 " fill-opacity="1" fill-rule="nonzero"/><path fill="#735a43" d="M 70.886719 190.617188 C 66.902344 188.378906 55.222656 193.292969 43.496094 197.492188 C 42.847656 197.71875 41.285156 198.582031 40.3125 200.101562 C 39.339844 201.613281 39.417969 203.128906 40.019531 204.703125 C 41.257812 207.96875 43.90625 208.105469 44.8125 207.824219 C 57.921875 203.839844 59.960938 202.832031 71.414062 197.828125 C 74.140625 196.636719 73.449219 192.054688 70.886719 190.617188 Z M 70.886719 190.617188 " fill-opacity="1" fill-rule="nonzero"/><path fill="#735a43" d="M 63.335938 169.867188 C 59.351562 167.628906 47.671875 172.539062 35.945312 176.742188 C 35.300781 176.96875 33.734375 177.832031 32.761719 179.351562 C 31.789062 180.859375 31.871094 182.378906 32.46875 183.953125 C 33.707031 187.214844 36.355469 187.351562 37.265625 187.070312 C 50.371094 183.089844 52.410156 182.078125 63.863281 177.078125 C 66.582031 175.886719 65.890625 171.3125 63.335938 169.867188 Z M 63.335938 169.867188 " fill-opacity="1" fill-rule="nonzero"/><path fill="#735a43" d="M 56.550781 147.050781 C 52.566406 144.8125 40.882812 149.722656 29.160156 153.925781 C 28.511719 154.152344 26.949219 155.015625 25.976562 156.535156 C 25 158.042969 25.082031 159.5625 25.683594 161.136719 C 26.921875 164.402344 29.566406 164.539062 30.476562 164.253906 C 43.585938 160.273438 45.625 159.261719 57.078125 154.261719 C 59.804688 153.070312 59.113281 148.488281 56.550781 147.050781 Z M 56.550781 147.050781 " fill-opacity="1" fill-rule="nonzero"/><path fill="#735a43" d="M 48.542969 125.863281 C 44.558594 123.625 32.878906 128.535156 21.152344 132.738281 C 20.507812 132.964844 18.941406 133.828125 17.96875 135.347656 C 16.996094 136.855469 17.078125 138.375 17.679688 139.949219 C 18.914062 143.214844 21.5625 143.351562 22.472656 143.066406 C 35.582031 139.085938 37.617188 138.074219 49.070312 133.074219 C 51.792969 131.882812 51.109375 127.300781 48.542969 125.863281 Z M 48.542969 125.863281 " fill-opacity="1" fill-rule="nonzero"/><path fill="#735a43" d="M 41.4375 105.558594 C 37.453125 103.320312 25.773438 108.230469 14.050781 112.429688 C 13.402344 112.660156 11.839844 113.523438 10.867188 115.042969 C 9.890625 116.550781 9.972656 118.070312 10.574219 119.644531 C 11.8125 122.90625 14.457031 123.042969 15.367188 122.761719 C 28.476562 118.777344 30.515625 117.769531 41.96875 112.769531 C 44.695312 111.578125 44.003906 106.992188 41.4375 105.558594 Z M 41.4375 105.558594 " fill-opacity="1" fill-rule="nonzero"/><path fill="#ffffff" d="M 93.355469 110.292969 C 128.257812 97.65625 146.042969 92.214844 154.65625 89.726562 C 201.886719 76.085938 219.089844 64.382812 229.996094 66.480469 C 234.089844 67.273438 234.671875 67.847656 236.574219 73.046875 C 240.128906 82.757812 243.085938 92.308594 245.980469 102.066406 C 252.039062 122.480469 259.371094 128.179688 251.410156 133.464844 C 248.28125 135.546875 239.792969 138.722656 222.773438 144.75 C 197.519531 153.699219 171.867188 161.691406 146.84375 171.140625 C 128.8125 177.949219 114.675781 182.960938 107.925781 182.296875 C 102.652344 181.769531 102.914062 175.714844 92.125 151.269531 C 80.945312 125.925781 82.175781 114.351562 93.355469 110.292969 Z M 253.164062 268.222656 C 261.78125 259.074219 269.667969 249.234375 276.707031 238.824219 C 279.238281 235.09375 281.738281 231.011719 281.757812 226.511719 C 281.773438 222.007812 278.234375 217.199219 273.75 217.554688 C 271.886719 217.699219 270.203125 218.671875 268.667969 219.746094 C 265.136719 222.207031 262.042969 225.308594 259.578125 228.847656 C 258.824219 229.9375 257.921875 231.191406 256.59375 231.265625 C 254.964844 231.355469 253.902344 229.648438 253.148438 228.203125 C 251.410156 224.835938 249.328125 221.5 246.207031 219.34375 C 243.09375 217.179688 238.730469 216.453125 235.5 218.445312 C 229.441406 222.171875 231.378906 231.382812 234.460938 237.796875 C 240.175781 249.6875 244.632812 257.671875 252.992188 267.886719 M 254.566406 266.3125 C 247.589844 257.765625 242.085938 248.398438 237.265625 238.496094 C 235.300781 234.457031 233.472656 230.101562 233.808594 225.507812 C 233.933594 223.753906 234.570312 222 235.945312 220.828125 C 237.574219 219.425781 239.828125 219.207031 241.859375 219.726562 C 244.421875 220.382812 246.46875 222.089844 248.089844 224.136719 C 249.691406 226.164062 250.609375 228.566406 252.054688 230.675781 C 253.738281 233.121094 256.675781 234.449219 259.296875 232.457031 C 260.304688 231.691406 260.988281 230.648438 261.714844 229.628906 C 262.589844 228.402344 263.5625 227.246094 264.601562 226.144531 C 266.546875 224.089844 268.75 222.152344 271.203125 220.726562 C 273.058594 219.652344 275.042969 219.308594 276.828125 220.691406 C 281.074219 223.992188 279.519531 229.765625 277.300781 233.738281 C 275.660156 236.675781 273.652344 239.433594 271.703125 242.179688 C 269.710938 244.980469 267.65625 247.753906 265.527344 250.460938 C 261.132812 256.074219 256.484375 261.464844 251.601562 266.65625 C 249.664062 268.722656 252.773438 271.839844 254.722656 269.777344 C 263.9375 259.972656 272.679688 249.363281 279.890625 237.984375 C 283.167969 232.820312 285.613281 226.417969 282.394531 220.625 C 281.109375 218.316406 278.972656 216.34375 276.390625 215.625 C 273.351562 214.78125 270.359375 215.933594 267.855469 217.625 C 265.21875 219.40625 262.789062 221.519531 260.679688 223.898438 C 259.597656 225.117188 258.613281 226.402344 257.667969 227.726562 C 257.421875 228.074219 257.03125 228.820312 256.621094 228.984375 C 256.414062 229.066406 256.90625 229.257812 256.3125 228.964844 C 255.496094 228.566406 254.929688 226.835938 254.53125 226.109375 C 253.765625 224.699219 252.9375 223.335938 251.984375 222.054688 C 250.183594 219.644531 247.980469 217.488281 245.1875 216.261719 C 239.9375 213.960938 233.1875 215.125 230.578125 220.71875 C 228.441406 225.292969 229.367188 230.738281 231.042969 235.3125 C 232.160156 238.378906 233.699219 241.296875 235.164062 244.207031 C 236.617188 247.097656 238.136719 249.972656 239.765625 252.773438 C 243.175781 258.648438 247.132812 264.167969 251.429688 269.421875 C 252.183594 270.339844 253.765625 270.203125 254.546875 269.421875 C 255.476562 268.523438 255.320312 267.238281 254.566406 266.3125 Z M 254.566406 266.3125 " fill-opacity="1" fill-rule="nonzero"/><path fill="#735a43" d="M 222.074219 92.945312 C 175.414062 110.011719 166.964844 113.195312 115.3125 130.792969 C 111.730469 132.011719 102.261719 134.511719 101.023438 132.109375 C 100.429688 130.957031 101.640625 129.34375 106.699219 126.679688 C 111.785156 124 118.332031 121.46875 120.910156 120.570312 C 167.773438 104.121094 215.1875 86.914062 227.414062 85.421875 C 235.289062 84.441406 233.199219 88.871094 222.074219 92.945312 Z M 232.296875 103.921875 C 220.0625 105.410156 172.660156 122.617188 125.792969 139.066406 C 123.21875 139.96875 116.667969 142.496094 111.585938 145.175781 C 106.535156 147.84375 105.316406 149.453125 105.90625 150.605469 C 107.144531 153.007812 116.613281 150.515625 120.199219 149.289062 C 171.851562 131.699219 180.308594 128.507812 226.957031 111.441406 C 238.09375 107.382812 240.175781 102.957031 232.296875 103.921875 Z M 237.945312 122.632812 C 225.710938 124.125 178.308594 141.332031 131.441406 157.78125 C 128.867188 158.679688 122.316406 161.210938 117.234375 163.890625 C 112.183594 166.554688 110.964844 168.164062 111.558594 169.320312 C 112.792969 171.722656 122.265625 169.230469 125.847656 168.003906 C 177.5 150.414062 185.960938 147.222656 232.605469 130.15625 C 243.730469 126.097656 245.824219 121.671875 237.945312 122.632812 Z M 237.945312 122.632812 " fill-opacity="1" fill-rule="nonzero"/><path fill="#f5a1c6" d="M 245.644531 292.964844 C 232.589844 291.027344 223.917969 288.109375 211.683594 283.144531 C 205.089844 280.472656 197.464844 274.949219 199.441406 268.121094 C 200.496094 264.484375 204.214844 262.09375 207.972656 261.59375 C 211.730469 261.101562 215.515625 262.164062 219.070312 263.492188 C 220.597656 264.066406 222.535156 264.613281 223.683594 263.449219 C 224.621094 262.503906 224.4375 260.964844 224.265625 259.648438 C 223.710938 255.371094 223.910156 251.007812 224.875 246.808594 C 225.292969 244.988281 225.882812 243.132812 227.167969 241.769531 C 230.25 238.484375 236.109375 239.667969 239.121094 243.023438 C 242.132812 246.371094 243.023438 251.070312 243.660156 255.535156 C 245.441406 267.976562 246.226562 280.5625 245.996094 293.121094 " fill-opacity="1" fill-rule="nonzero"/></svg>